<svg width="48" height="48" viewBox="0 0 48 48" fill="none" xmlns="http://www.w3.org/2000/svg">
<path d="M19.9056 40.7952C18.8616 40.7952 17.8728 40.308 17.2392 39.468L8.66399 28.1376C8.39887 27.7877 8.20532 27.389 8.09439 26.9642C7.98347 26.5394 7.95735 26.097 8.01753 25.6621C8.07771 25.2272 8.22301 24.8085 8.44512 24.4298C8.66724 24.0511 8.96181 23.72 9.31199 23.4552C9.66205 23.1893 10.0611 22.9952 10.4864 22.8838C10.9116 22.7725 11.3547 22.7462 11.7901 22.8064C12.2255 22.8666 12.6448 23.0121 13.0239 23.2346C13.403 23.4572 13.7344 23.7523 13.9992 24.1032L19.6416 31.5528L33.828 8.772C34.2985 8.01984 35.0481 7.48499 35.9124 7.28478C36.7767 7.08456 37.6851 7.23533 38.4384 7.704C40.0056 8.6784 40.488 10.7424 39.5088 12.312L22.7472 39.216C22.4611 39.6773 22.0667 40.0619 21.5982 40.3362C21.1298 40.6106 20.6015 40.7665 20.0592 40.7904C20.0064 40.7952 19.9584 40.7952 19.9056 40.7952V40.7952Z" fill="#75829B"/>
</svg>
