<svg width="48" height="48" viewBox="0 0 48 48" fill="none" xmlns="http://www.w3.org/2000/svg">
<path d="M34.782 5.6025C34.7822 4.89994 34.5033 4.22608 34.0067 3.72916C33.51 3.23223 32.8363 2.95295 32.1338 2.95275C31.7859 2.95265 31.4414 3.02107 31.12 3.15411C30.7985 3.28714 30.5065 3.48218 30.2604 3.7281C29.7635 4.22474 29.4842 4.89844 29.484 5.601C29.484 7.0635 32.133 12.0015 32.133 12.0015C32.133 12.0015 34.782 7.0635 34.782 5.601V5.6025ZM30.867 5.6025C30.8611 5.43268 30.8894 5.26341 30.9502 5.10476C31.0111 4.94611 31.1032 4.80134 31.2212 4.67907C31.3392 4.55679 31.4806 4.45953 31.637 4.39306C31.7934 4.32659 31.9616 4.29229 32.1315 4.29219C32.3014 4.29209 32.4696 4.32619 32.6261 4.39247C32.7825 4.45876 32.924 4.55586 33.0422 4.67799C33.1603 4.80012 33.2527 4.94478 33.3137 5.10336C33.3748 5.26194 33.4032 5.43118 33.3975 5.601C33.3864 5.92903 33.2483 6.23994 33.0124 6.46813C32.7765 6.69633 32.4612 6.82399 32.133 6.82419C31.8048 6.82438 31.4893 6.6971 31.2531 6.46918C31.0169 6.24126 30.8785 5.93052 30.867 5.6025ZM37.9215 27.7425C37.0815 27.7425 36.276 27.813 35.5365 27.927L16.65 20.964C16.95 20.694 17.118 20.394 17.118 20.079C17.1141 19.9129 17.0688 19.7505 16.986 19.6065L29.601 16.2495C30.291 16.455 31.1355 16.5795 32.07 16.5795C34.35 16.5795 36.195 15.8535 36.195 14.9565C36.195 14.0565 34.35 13.332 32.07 13.332C29.79 13.332 27.945 14.0595 27.945 14.9565C27.945 15.0615 27.975 15.162 28.026 15.2595L14.844 18.3C13.7388 17.9882 12.5948 17.8352 11.4465 17.8455C8.316 17.8455 5.7765 18.846 5.7765 20.0805C5.7765 21.315 8.316 22.3155 11.4465 22.3155C12.3075 22.3155 13.1115 22.233 13.8435 22.098L31.8285 29.397C31.5435 29.685 31.3695 29.997 31.3695 30.3315C31.3695 30.6165 31.5135 30.8775 31.7235 31.131L13.0425 38.1225C12.8055 38.115 12.5685 38.1075 12.327 38.1075C7.467 38.1075 3.522 39.6615 3.522 41.5725C3.522 43.488 7.467 45.042 12.327 45.042C17.187 45.042 21.132 43.491 21.132 41.574C21.132 41.244 21.0075 40.926 20.787 40.6245L36.186 32.8035C36.741 32.8635 37.3155 32.901 37.9185 32.901C41.538 32.901 44.4735 31.746 44.4735 30.3165C44.4735 28.9005 41.538 27.7425 37.9185 27.7425H37.9215Z" fill="#75829B"/>
</svg>
