<svg width="48" height="48" viewBox="0 0 48 48" fill="none" xmlns="http://www.w3.org/2000/svg">
<path d="M18.5469 28.5062C18.5469 21.5875 28.4 17.0219 28.4 9.475C28.4 5.05937 25.2125 1.225 24.7344 1C24.7719 1.30937 24.7906 1.62812 24.7906 1.9375C24.7906 10.5719 11 16.3656 11 27.1187C11 31.7875 14.0188 34.5437 17.2344 37.2719C23.3375 41.65 24.5563 43.9656 24.5563 45.3906C24.5563 46.3375 24.1063 46.9844 24.1063 47.4812C25.3344 45.9156 25.7375 44.4906 25.7469 43.1312C25.7469 40.3562 23.7125 37.8531 21.6031 35.0219C20.1031 32.9312 18.5469 31.0281 18.5469 28.5062V28.5062ZM37.7937 24.85C36.6594 18.5875 30.4813 13.1875 28.9156 12.5781L29.2906 13.2531C29.5156 13.7312 29.6094 14.275 29.6094 14.8562C29.6094 19.0469 24.5281 25.2812 24.3031 25.7969C24.0969 26.275 24.0031 26.7812 24.0031 27.2781C24.0031 29.1625 25.4281 31.225 25.6813 31.225C25.9063 31.225 30.9875 26.0312 31.1281 23.0031C31.7281 24.1 31.9813 25.1219 31.9813 26.1344C31.9813 29.9969 28.0625 35.2187 28.0625 35.2187C28.0625 36.3062 31.0531 40.2062 31.3906 40.2062C31.4844 40.2062 31.5969 40.075 31.6906 39.9812C35.2437 36.2969 38 32.0125 38 27.1562C38 26.4062 37.9344 25.6375 37.7937 24.85V24.85Z" fill="#75829B"/>
</svg>
