<svg width="20" height="24" viewBox="0 0 20 24" fill="none" xmlns="http://www.w3.org/2000/svg">
<path d="M12.75 4.5C13.9927 4.5 15 3.49266 15 2.25C15 1.00734 13.9927 0 12.75 0C11.5073 0 10.5 1.00734 10.5 2.25C10.5 3.49266 11.5073 4.5 12.75 4.5ZM5.32922 14.8814L4.63547 16.4995H1.5C0.671719 16.4995 0 17.1712 0 17.9995C0 18.8278 0.671719 19.4995 1.5 19.4995H5.13047C6.03281 19.4995 6.84516 18.9633 7.19812 18.1359L7.61016 17.1741L7.11 16.8787C6.29812 16.3992 5.70094 15.6895 5.32922 14.8814ZM18 10.4995H15.9361L14.7145 8.00344C14.1286 6.80578 13.0528 5.93016 11.8186 5.61563L8.48672 4.62469C7.16016 4.30594 5.77875 4.59891 4.69734 5.42813L2.83781 6.85359C2.18016 7.3575 2.05547 8.29875 2.56031 8.95641C3.06516 9.61406 4.00594 9.73734 4.66313 9.23391L6.52359 7.80844C6.88312 7.53234 7.34109 7.43344 7.70813 7.52063L8.39719 7.72547L6.64125 11.8219C6.04969 13.2037 6.57984 14.8223 7.87406 15.5864L11.8575 17.9381L10.5698 22.0505C10.3223 22.8408 10.7625 23.6822 11.5528 23.9297C11.7023 23.9766 11.8533 23.9991 12.0019 23.9991C12.6398 23.9991 13.2314 23.588 13.4325 22.9467L14.9156 18.2095C15.1927 17.2359 14.7802 16.1902 13.9012 15.66L11.0306 13.9659L12.4983 10.2966L13.4484 12.2386C13.8234 13.0045 14.6166 13.4991 15.4692 13.4991H18C18.8283 13.4991 19.5 12.8273 19.5 11.9991C19.5 11.1708 18.8283 10.4995 18 10.4995Z" fill="#7A87A7"/>
</svg>
