<svg width="48" height="48" viewBox="0 0 48 48" fill="none" xmlns="http://www.w3.org/2000/svg">
<path d="M11.3782 15.2385C11.9499 15.2385 12.4132 14.6791 12.4132 13.989C12.4132 13.2989 11.9499 12.7395 11.3782 12.7395C10.8066 12.7395 10.3432 13.2989 10.3432 13.989C10.3432 14.6791 10.8066 15.2385 11.3782 15.2385Z" fill="#75829B"/>
<path d="M45.375 33.6472C44.5118 32.289 43.2023 30.4822 42.1778 30.1987C41.6123 29.7787 40.7385 29.4412 39.8025 29.0895L39.3255 28.908C39.3383 28.5307 39.222 28.2578 38.964 28.077C37.386 26.9753 35.7855 25.3462 34.248 23.514C34.2893 23.406 34.3133 23.289 34.3133 23.163C34.3133 22.6898 33.9945 22.3065 33.6023 22.3065C33.489 22.3065 33.3855 22.3162 33.2738 22.3177C32.8252 21.7487 32.3867 21.1718 31.9583 20.5875C32.0318 20.4533 32.085 20.301 32.085 20.1285C32.085 19.6545 31.7663 19.2712 31.3748 19.2712C31.338 19.2712 31.2098 19.272 31.014 19.2795C30.5141 18.5699 30.0223 17.8546 29.5388 17.1337C29.5695 17.0385 29.5898 16.9373 29.5898 16.83C29.5898 16.356 29.2718 15.972 28.8803 15.972C28.842 15.972 28.8075 15.975 28.7708 15.975C28.3152 15.2795 27.8634 14.5815 27.4155 13.881C27.438 13.7962 27.4598 13.7093 27.4598 13.6163C27.4598 13.143 27.1403 12.7598 26.7495 12.7598L26.7 12.7612C24.873 9.90825 24.5408 9.47775 24.0345 9.47775C23.7 9.47775 23.3895 9.50025 23.0873 9.531C22.9733 9.32625 22.857 9.1275 22.7438 8.91975C22.3905 8.27325 21.636 7.5 20.0543 7.5C17.658 7.5 14.37 9.27975 12.4403 10.4685C10.611 9.69225 9.0555 9.29025 7.83075 9.29025C6.5805 9.29025 5.9985 9.6975 5.75475 9.94425C5.73975 9.957 5.72175 9.9645 5.7075 9.9795C4.359 11.4525 3.49125 14.2065 2.934 16.9343C2.046 19.7595 1.94925 22.0597 1.9635 23.1202C1.9085 23.1845 1.86118 23.255 1.8225 23.3303C1.30425 24.4065 1.41 28.5832 2.139 29.49C4.00875 31.8247 5.922 33.3383 7.94775 34.941C10.239 36.7538 12.6075 38.628 15.3915 41.9692C17.79 44.8492 22.7835 46.5 29.0933 46.5C37.4993 46.5 46.5 43.5157 46.5 39.075C46.5 34.1865 45.9728 33.6705 45.375 33.6472ZM44.5493 34.4017C42.924 36.9225 35.3783 38.2815 28.7348 38.2815C26.517 38.2815 24.5595 38.1285 23.2208 37.8495C21.3668 37.4632 19.62 36.8242 17.982 36.0337C19.5203 34.0207 22.3043 33.708 25.1408 33.708C26.2425 33.708 27.3795 33.7575 28.5848 33.8115C29.8155 33.8655 31.0883 33.921 32.3468 33.921C35.3843 33.921 39.2085 33.6195 42.0698 31.3177C42.582 31.6267 43.5998 32.8965 44.5493 34.4017V34.4017ZM35.6288 27.5265C36.063 27.9795 36.4725 28.4092 36.8243 28.7925C37.305 29.3175 38.331 29.7038 39.4155 30.1125C39.9765 30.324 40.5413 30.5407 40.9875 30.7605C38.4645 32.5665 35.2268 32.8282 32.3468 32.8282C31.1715 32.8282 29.9745 32.7772 28.809 32.7255C28.8068 31.5307 28.6328 30.3158 28.338 29.5718C30.0383 28.5728 32.4825 27.6105 35.6288 27.5265ZM32.3573 24.0615C32.9293 24.686 33.5076 25.3048 34.092 25.9177C31.254 26.238 29.0288 27.1973 27.4418 28.176C26.8856 27.3919 26.3251 26.6109 25.7603 25.833C27.2625 25.002 29.4113 24.2348 32.3573 24.0615V24.0615ZM30.9375 22.4745C28.2248 22.8112 26.211 23.6258 24.7703 24.489C24.3173 23.8755 23.8725 23.2815 23.439 22.7092C25.6305 21.657 28.1453 21.246 29.7465 21.087C30.1515 21.5692 30.5468 22.0275 30.9375 22.4745V22.4745ZM22.4138 21.3743C21.8719 20.676 21.3232 19.9833 20.7675 19.296C22.347 18.6135 24.4755 17.9708 27.1193 17.763C27.5603 18.3533 28.0106 18.9366 28.47 19.5128C26.7098 19.767 24.4298 20.2935 22.4138 21.3743V21.3743ZM28.5975 17.6955C28.9283 18.1905 29.2695 18.693 29.622 19.2015C29.2245 18.7063 28.8337 18.2057 28.4498 17.7C28.4993 17.6985 28.5473 17.6955 28.5975 17.6955ZM26.499 14.481C26.811 14.9678 27.1395 15.4777 27.4875 16.014C27.396 16.0185 27.309 16.029 27.2183 16.035C26.8535 15.5248 26.4952 15.01 26.1435 14.4907C26.2635 14.4877 26.3783 14.4825 26.499 14.481V14.481ZM19.6553 17.9535C19.1363 17.3363 18.608 16.7269 18.0705 16.1257C19.6905 15.4245 21.942 14.7585 24.8633 14.5477C25.2278 15.0982 25.593 15.6345 25.9575 16.1535C23.2988 16.4835 21.1943 17.2192 19.6553 17.9535V17.9535ZM23.8823 10.5742C24.1478 10.8472 24.7485 11.7547 25.4213 12.7972C25.2953 12.8032 25.1685 12.8085 25.0448 12.816C24.5777 12.0814 24.1246 11.338 23.6858 10.5862C23.7525 10.584 23.8133 10.5757 23.8823 10.5742ZM20.0543 8.5935C20.9018 8.5935 21.4665 8.87175 21.78 9.444C22.4241 10.6216 23.1021 11.7804 23.8133 12.9188C20.7713 13.2495 18.4778 14.055 16.866 14.841C15.288 13.2098 13.9545 12.084 12.8768 11.49C14.6843 10.365 17.874 8.5935 20.0543 8.5935V8.5935ZM6.57825 10.665C6.69375 10.5825 7.05 10.383 7.83 10.383C8.4345 10.383 9.402 10.5142 10.8203 11.0107C8.91675 11.2252 7.86375 12.7193 7.01475 13.9523C6.46875 14.7428 5.95575 15.489 5.47575 15.5145C5.18175 15.1395 5.70675 12.8468 6.57825 10.665V10.665ZM4.362 15.5858C4.401 15.7958 4.467 15.9788 4.5645 16.1243C4.7655 16.4205 5.0775 16.5817 5.4435 16.5817C6.534 16.5817 7.20675 15.6053 7.91925 14.5703C8.77125 13.3358 9.651 12.0593 11.28 12.0593C12.1905 12.0593 13.7655 13.2262 15.8513 15.3735C15.33 15.675 14.9288 15.9502 14.6258 16.1745C14.5418 16.1463 14.454 16.1311 14.3655 16.1295C13.7933 16.1295 13.3298 16.689 13.3298 17.379C13.3298 18.069 13.7933 18.6285 14.3655 18.6285C14.8665 18.6285 15.2843 18.1988 15.3803 17.6273C15.9008 17.25 16.4494 16.913 17.0213 16.6193C17.5719 17.2287 18.1117 17.8478 18.6405 18.4763C18.1594 18.7437 17.6937 19.038 17.2455 19.3575C17.1567 19.3256 17.0631 19.3086 16.9688 19.3073C16.3973 19.3073 15.9338 19.866 15.9338 20.5568C15.9338 21.2475 16.3973 21.8063 16.9688 21.8063C17.4615 21.8063 17.8718 21.3892 17.9768 20.832C18.5338 20.4401 19.1183 20.0887 19.7258 19.7805C20.283 20.4623 20.8605 21.183 21.4553 21.9465C20.8421 22.3513 20.2778 22.8257 19.7738 23.3602C19.746 23.3572 19.7198 23.3505 19.6913 23.3505C19.1175 23.3505 18.6548 23.91 18.6548 24.6C18.6548 25.2892 19.1175 25.8495 19.6913 25.8495C20.2515 25.8495 20.7068 25.308 20.7218 24.6345C21.2335 24.0936 21.8166 23.625 22.455 23.2418C22.9088 23.8373 23.373 24.453 23.8478 25.0905C23.2995 25.4853 22.7918 25.9335 22.332 26.4285C22.3088 26.427 22.2863 26.4203 22.263 26.4203C21.6923 26.4203 21.228 26.9805 21.228 27.6705C21.228 28.3598 21.6923 28.92 22.263 28.92C22.8285 28.92 23.2845 28.3725 23.2958 27.6937C23.7561 27.2123 24.2668 26.7816 24.819 26.409C25.3945 27.1977 25.9648 27.9902 26.5298 28.7865C26.016 29.1535 25.5283 29.5557 25.0703 29.9902C25.0223 29.982 24.975 29.973 24.9263 29.973C24.3533 29.973 23.8905 30.5333 23.8905 31.2225C23.8905 31.9125 24.3533 32.472 24.9263 32.472C25.4618 32.472 25.899 31.9763 25.95 31.3433C26.4077 30.9152 26.8963 30.5214 27.4118 30.165C27.63 30.783 27.723 31.749 27.7185 32.6805C26.8603 32.6408 26.0014 32.6186 25.1423 32.6138C21.9203 32.6138 18.75 33.0015 16.9845 35.5305C12.2925 33.0203 8.6115 29.301 6.20025 26.574C6.25425 24.141 5.65275 22.6208 5.0505 21.1665C4.548 19.95 4.074 18.798 4.023 17.1075C4.12425 16.5967 4.236 16.0853 4.362 15.5858V15.5858ZM4.03425 21.5828C4.494 22.6935 4.9275 23.7765 5.06775 25.2667C4.869 25.032 4.683 24.8107 4.512 24.6067C3.75375 23.7052 3.35325 23.2372 3.06075 23.0062C3.0644 21.9253 3.1643 20.8468 3.35925 19.7835C3.55575 20.4278 3.79725 21.0105 4.03425 21.5828V21.5828ZM29.0933 45.4065C23.1105 45.4065 18.4253 43.899 16.236 41.2717C13.3793 37.842 10.8563 35.8462 8.63025 34.0845C6.65475 32.5222 4.7895 31.0455 2.99625 28.809C2.63025 28.3245 2.481 25.3365 2.697 24.1755C2.9565 24.4613 3.31725 24.8895 3.66975 25.3095C6.591 28.7865 13.4325 36.927 22.9973 38.9198C24.4065 39.213 26.445 39.3743 28.7348 39.3743C33.8738 39.3743 42.5963 38.5005 45.216 35.361C45.3098 35.982 45.402 37.0957 45.402 39.0735C45.402 42.3885 37.6283 45.4065 29.0933 45.4065" fill="#75829B"/>
</svg>
