<svg width="24" height="24" viewBox="0 0 24 24" fill="none" xmlns="http://www.w3.org/2000/svg">
<path d="M11 6V8C9.8229 8.00004 8.67182 8.34632 7.69007 8.99571C6.70831 9.64511 5.93926 10.5689 5.47865 11.6522C5.01805 12.7354 4.88625 13.9302 5.09965 15.0878C5.31306 16.2454 5.86225 17.3146 6.67884 18.1624C7.49543 19.0102 8.54336 19.5991 9.69214 19.8557C10.8409 20.1123 12.0398 20.0253 13.1395 19.6056C14.2393 19.1859 15.1913 18.452 15.877 17.4953C16.5627 16.5386 16.9519 15.4013 16.996 14.225L17 14H19C19 16.1217 18.1571 18.1566 16.6569 19.6569C15.1566 21.1571 13.1217 22 11 22C8.87827 22 6.84344 21.1571 5.34315 19.6569C3.84285 18.1566 3 16.1217 3 14C3 9.665 6.58 6 11 6ZM21 2V4L15.673 10H21V12H13V10L18.326 4H13V2H21Z" fill="#7A87A7"/>
</svg>
